<svg width="327" height="103" viewBox="0 0 327 103" fill="none" xmlns="http://www.w3.org/2000/svg">
<ellipse cx="48.2649" cy="54.7526" rx="48.2649" ry="48.2474" fill="black"/>
<path d="M134.941 38.5237L84.9798 85.4693L69.2897 18.7443L134.941 38.5237Z" fill="black"/>
<ellipse cx="47.9938" cy="39.3026" rx="12.2018" ry="12.1974" fill="#FFD600"/>
<path d="M168.114 42.0156C167.764 45.0104 166.655 47.3246 164.788 48.9581C162.935 50.5787 160.465 51.3889 157.379 51.3889C154.034 51.3889 151.351 50.1897 149.328 47.7913C147.319 45.3929 146.314 42.1842 146.314 38.1652V35.4427C146.314 32.8109 146.781 30.4967 147.714 28.5002C148.661 26.5037 149.996 24.9739 151.72 23.9108C153.445 22.8347 155.441 22.2967 157.71 22.2967C160.718 22.2967 163.129 23.1394 164.944 24.8248C166.759 26.4972 167.816 28.8178 168.114 31.7867H164.361C164.037 29.5309 163.33 27.8974 162.241 26.8861C161.165 25.8749 159.655 25.3693 157.71 25.3693C155.324 25.3693 153.451 26.2509 152.09 28.014C150.742 29.7772 150.067 32.2858 150.067 35.5399V38.2819C150.067 41.3545 150.709 43.7983 151.993 45.6133C153.276 47.4283 155.072 48.3358 157.379 48.3358C159.454 48.3358 161.042 47.8691 162.144 46.9356C163.259 45.9892 163.998 44.3492 164.361 42.0156H168.114ZM182.835 33.1869C182.29 33.0961 181.701 33.0507 181.065 33.0507C178.706 33.0507 177.105 34.0555 176.262 36.065V51H172.664V29.9587H176.165L176.223 32.3895C177.403 30.5097 179.075 29.5698 181.24 29.5698C181.94 29.5698 182.472 29.6605 182.835 29.842V33.1869ZM184.819 40.2849C184.819 38.2235 185.22 36.3696 186.024 34.7231C186.841 33.0767 187.969 31.8061 189.408 30.9116C190.86 30.017 192.513 29.5698 194.367 29.5698C197.232 29.5698 199.546 30.5616 201.309 32.5451C203.085 34.5287 203.974 37.1669 203.974 40.4599V40.7127C203.974 42.7611 203.578 44.602 202.787 46.2356C202.009 47.8561 200.888 49.1202 199.423 50.0277C197.971 50.9352 196.299 51.3889 194.406 51.3889C191.554 51.3889 189.239 50.3972 187.463 48.4136C185.7 46.43 184.819 43.8047 184.819 40.5377V40.2849ZM188.436 40.7127C188.436 43.0463 188.974 44.9197 190.05 46.3328C191.139 47.7459 192.591 48.4525 194.406 48.4525C196.234 48.4525 197.686 47.7394 198.762 46.3134C199.838 44.8743 200.376 42.8648 200.376 40.2849C200.376 37.9772 199.825 36.1103 198.723 34.6842C197.634 33.2452 196.182 32.5257 194.367 32.5257C192.591 32.5257 191.158 33.2322 190.069 34.6454C188.98 36.0585 188.436 38.0809 188.436 40.7127ZM227.115 46.0411L231.16 29.9587H234.758L228.632 51H225.715L220.6 35.0537L215.622 51H212.705L206.599 29.9587H210.177L214.319 45.7105L219.22 29.9587H222.117L227.115 46.0411ZM258.56 25.7582H249.459V51H245.745V25.7582H236.663V22.6857H258.56V25.7582ZM268.984 51.3889C266.132 51.3889 263.811 50.4555 262.022 48.5886C260.233 46.7088 259.338 44.2001 259.338 41.0628V40.4016C259.338 38.3143 259.734 36.4539 260.524 34.8204C261.328 33.1739 262.443 31.8904 263.869 30.9699C265.308 30.0365 266.864 29.5698 268.536 29.5698C271.272 29.5698 273.398 30.4708 274.915 32.2729C276.432 34.0749 277.19 36.6548 277.19 40.0126V41.51H262.936C262.988 43.5843 263.591 45.2632 264.744 46.5467C265.911 47.8172 267.389 48.4525 269.178 48.4525C270.449 48.4525 271.525 48.1932 272.406 47.6746C273.288 47.156 274.059 46.4689 274.721 45.6133L276.918 47.3246C275.155 50.0341 272.51 51.3889 268.984 51.3889ZM268.536 32.5257C267.084 32.5257 265.866 33.0572 264.88 34.1203C263.895 35.1704 263.286 36.6484 263.053 38.5541H273.593V38.2819C273.489 36.4539 272.996 35.0408 272.115 34.0425C271.233 33.0313 270.04 32.5257 268.536 32.5257ZM289.811 48.4525C291.095 48.4525 292.216 48.0636 293.175 47.2857C294.135 46.5078 294.666 45.5355 294.77 44.3687H298.173C298.108 45.5744 297.693 46.7217 296.929 47.8107C296.164 48.8998 295.14 49.7684 293.856 50.4166C292.586 51.0648 291.237 51.3889 289.811 51.3889C286.946 51.3889 284.664 50.436 282.966 48.5303C281.281 46.6115 280.438 43.9927 280.438 40.6738V40.071C280.438 38.0226 280.814 36.2011 281.566 34.6065C282.318 33.0118 283.394 31.7737 284.794 30.8921C286.207 30.0106 287.873 29.5698 289.792 29.5698C292.151 29.5698 294.109 30.2763 295.665 31.6895C297.233 33.1026 298.069 34.9371 298.173 37.1929H294.77C294.666 35.8316 294.148 34.7167 293.214 33.848C292.294 32.9665 291.153 32.5257 289.792 32.5257C287.964 32.5257 286.544 33.1869 285.533 34.5092C284.535 35.8186 284.035 37.7179 284.035 40.2071V40.8877C284.035 43.3121 284.535 45.179 285.533 46.4884C286.531 47.7978 287.957 48.4525 289.811 48.4525ZM305.816 32.5062C307.41 30.5486 309.485 29.5698 312.039 29.5698C316.485 29.5698 318.728 32.0784 318.767 37.0956V51H315.17V37.0762C315.157 35.5593 314.807 34.4379 314.119 33.7119C313.445 32.9859 312.389 32.6229 310.95 32.6229C309.783 32.6229 308.759 32.934 307.877 33.5563C306.995 34.1786 306.308 34.9954 305.816 36.0066V51H302.218V21.1299H305.816V32.5062Z" fill="black"/>
<path d="M153.583 72.4297C153.444 73.6198 153.003 74.5394 152.261 75.1886C151.524 75.8326 150.543 76.1546 149.317 76.1546C147.988 76.1546 146.921 75.678 146.117 74.7249C145.319 73.7718 144.92 72.4967 144.92 70.8996V69.8177C144.92 68.7718 145.105 67.8522 145.476 67.0588C145.852 66.2654 146.383 65.6575 147.068 65.235C147.753 64.8074 148.547 64.5936 149.448 64.5936C150.643 64.5936 151.602 64.9285 152.323 65.5982C153.044 66.2628 153.464 67.185 153.583 68.3648H152.091C151.962 67.4684 151.682 66.8192 151.249 66.4174C150.821 66.0155 150.221 65.8146 149.448 65.8146C148.5 65.8146 147.756 66.1649 147.215 66.8656C146.679 67.5663 146.411 68.5632 146.411 69.8563V70.9459C146.411 72.167 146.666 73.1381 147.176 73.8594C147.686 74.5806 148.4 74.9413 149.317 74.9413C150.141 74.9413 150.772 74.7558 151.21 74.3849C151.653 74.0088 151.947 73.3571 152.091 72.4297H153.583ZM155.012 71.7419C155.012 70.9228 155.172 70.186 155.491 69.5317C155.816 68.8774 156.264 68.3725 156.836 68.0171C157.413 67.6616 158.07 67.4838 158.807 67.4838C159.945 67.4838 160.865 67.878 161.566 68.6662C162.271 69.4545 162.624 70.5029 162.624 71.8115V71.9119C162.624 72.7259 162.467 73.4575 162.153 74.1067C161.844 74.7507 161.398 75.253 160.816 75.6136C160.239 75.9742 159.574 76.1546 158.822 76.1546C157.689 76.1546 156.769 75.7604 156.063 74.9722C155.363 74.1839 155.012 73.1407 155.012 71.8424V71.7419ZM156.45 71.9119C156.45 72.8393 156.663 73.5837 157.091 74.1453C157.524 74.7069 158.101 74.9876 158.822 74.9876C159.549 74.9876 160.126 74.7043 160.553 74.1376C160.981 73.5657 161.195 72.7672 161.195 71.7419C161.195 70.8249 160.976 70.083 160.538 69.5163C160.105 68.9444 159.528 68.6585 158.807 68.6585C158.101 68.6585 157.532 68.9393 157.099 69.5008C156.666 70.0624 156.45 70.8661 156.45 71.9119ZM165.762 67.6384L165.8 68.5657C166.414 67.8445 167.24 67.4838 168.281 67.4838C169.451 67.4838 170.247 67.9321 170.669 68.8285C170.947 68.4266 171.308 68.1021 171.751 67.8548C172.199 67.6075 172.727 67.4838 173.335 67.4838C175.169 67.4838 176.102 68.455 176.133 70.3973V76H174.703V70.4823C174.703 69.8846 174.566 69.439 174.293 69.1453C174.02 68.8465 173.562 68.6971 172.918 68.6971C172.387 68.6971 171.947 68.8568 171.596 69.1762C171.246 69.4905 171.043 69.9156 170.986 70.4514V76H169.548V70.5209C169.548 69.305 168.953 68.6971 167.763 68.6971C166.826 68.6971 166.184 69.0964 165.839 69.8949V76H164.409V67.6384H165.762ZM179.641 67.6384L179.68 68.5657C180.293 67.8445 181.12 67.4838 182.16 67.4838C183.33 67.4838 184.126 67.9321 184.548 68.8285C184.827 68.4266 185.187 68.1021 185.63 67.8548C186.079 67.6075 186.607 67.4838 187.215 67.4838C189.049 67.4838 189.981 68.455 190.012 70.3973V76H188.582V70.4823C188.582 69.8846 188.446 69.439 188.173 69.1453C187.9 68.8465 187.441 68.6971 186.797 68.6971C186.267 68.6971 185.826 68.8568 185.476 69.1762C185.125 69.4905 184.922 69.9156 184.865 70.4514V76H183.428V70.5209C183.428 69.305 182.833 68.6971 181.643 68.6971C180.705 68.6971 180.064 69.0964 179.718 69.8949V76H178.289V67.6384H179.641ZM197.338 75.1731C196.782 75.8274 195.965 76.1546 194.888 76.1546C193.997 76.1546 193.317 75.897 192.848 75.3818C192.384 74.8614 192.15 74.0938 192.145 73.0788V67.6384H193.575V73.0402C193.575 74.3076 194.09 74.9413 195.12 74.9413C196.212 74.9413 196.939 74.5343 197.299 73.7203V67.6384H198.729V76H197.369L197.338 75.1731ZM202.261 67.6384L202.307 68.6894C202.946 67.8857 203.781 67.4838 204.811 67.4838C206.578 67.4838 207.469 68.4807 207.485 70.4745V76H206.055V70.4668C206.05 69.864 205.911 69.4184 205.638 69.1299C205.37 68.8414 204.95 68.6971 204.378 68.6971C203.915 68.6971 203.508 68.8208 203.157 69.0681C202.807 69.3154 202.534 69.6399 202.338 70.0418V76H200.908V67.6384H202.261ZM211.194 76H209.765V67.6384H211.194V76ZM209.649 65.4205C209.649 65.1886 209.718 64.9929 209.857 64.8332C210.002 64.6734 210.213 64.5936 210.491 64.5936C210.769 64.5936 210.98 64.6734 211.125 64.8332C211.269 64.9929 211.341 65.1886 211.341 65.4205C211.341 65.6523 211.269 65.8455 211.125 66.0001C210.98 66.1546 210.769 66.2319 210.491 66.2319C210.213 66.2319 210.002 66.1546 209.857 66.0001C209.718 65.8455 209.649 65.6523 209.649 65.4205ZM216.843 74.9876C217.353 74.9876 217.799 74.8331 218.18 74.524C218.562 74.2149 218.773 73.8285 218.814 73.3648H220.166C220.141 73.8439 219.976 74.2999 219.672 74.7326C219.368 75.1654 218.961 75.5106 218.451 75.7682C217.946 76.0258 217.41 76.1546 216.843 76.1546C215.705 76.1546 214.798 75.7759 214.123 75.0186C213.453 74.2561 213.118 73.2154 213.118 71.8965V71.6569C213.118 70.8429 213.268 70.1191 213.567 69.4854C213.866 68.8517 214.293 68.3597 214.85 68.0093C215.411 67.659 216.073 67.4838 216.836 67.4838C217.773 67.4838 218.551 67.7646 219.169 68.3262C219.793 68.8877 220.125 69.6167 220.166 70.5132H218.814C218.773 69.9722 218.567 69.5292 218.196 69.184C217.83 68.8336 217.377 68.6585 216.836 68.6585C216.109 68.6585 215.545 68.9212 215.143 69.4467C214.747 69.9671 214.548 70.7218 214.548 71.711V71.9815C214.548 72.9449 214.747 73.6868 215.143 74.2071C215.54 74.7275 216.107 74.9876 216.843 74.9876ZM226.936 76C226.854 75.8351 226.787 75.5415 226.735 75.119C226.07 75.8094 225.277 76.1546 224.355 76.1546C223.531 76.1546 222.853 75.9227 222.322 75.459C221.797 74.9902 221.534 74.3977 221.534 73.6816C221.534 72.8109 221.864 72.136 222.523 71.6569C223.188 71.1726 224.12 70.9305 225.321 70.9305H226.712V70.2736C226.712 69.7739 226.562 69.3772 226.264 69.0835C225.965 68.7847 225.524 68.6353 224.942 68.6353C224.432 68.6353 224.005 68.7641 223.659 69.0217C223.314 69.2793 223.142 69.591 223.142 69.9568H221.704C221.704 69.5395 221.851 69.1376 222.145 68.7512C222.444 68.3597 222.845 68.0505 223.35 67.8239C223.86 67.5972 224.419 67.4838 225.027 67.4838C225.991 67.4838 226.745 67.726 227.291 68.2103C227.838 68.6894 228.121 69.3514 228.142 70.1963V74.0448C228.142 74.8125 228.239 75.423 228.435 75.8764V76H226.936ZM224.564 74.9104C225.012 74.9104 225.437 74.7944 225.839 74.5626C226.24 74.3308 226.532 74.0294 226.712 73.6584V71.9428H225.591C223.84 71.9428 222.964 72.4555 222.964 73.4807C222.964 73.9289 223.113 74.2793 223.412 74.5317C223.711 74.7841 224.095 74.9104 224.564 74.9104ZM232.322 65.6137V67.6384H233.883V68.7435H232.322V73.9289C232.322 74.2638 232.392 74.5162 232.531 74.6863C232.67 74.8511 232.907 74.9335 233.242 74.9335C233.407 74.9335 233.634 74.9026 233.922 74.8408V76C233.546 76.103 233.18 76.1546 232.825 76.1546C232.186 76.1546 231.704 75.9614 231.38 75.575C231.055 75.1886 230.893 74.6399 230.893 73.9289V68.7435H229.37V67.6384H230.893V65.6137H232.322ZM237.114 76H235.684V67.6384H237.114V76ZM235.568 65.4205C235.568 65.1886 235.638 64.9929 235.777 64.8332C235.921 64.6734 236.132 64.5936 236.41 64.5936C236.689 64.5936 236.9 64.6734 237.044 64.8332C237.188 64.9929 237.261 65.1886 237.261 65.4205C237.261 65.6523 237.188 65.8455 237.044 66.0001C236.9 66.1546 236.689 66.2319 236.41 66.2319C236.132 66.2319 235.921 66.1546 235.777 66.0001C235.638 65.8455 235.568 65.6523 235.568 65.4205ZM239.03 71.7419C239.03 70.9228 239.19 70.186 239.509 69.5317C239.834 68.8774 240.282 68.3725 240.854 68.0171C241.431 67.6616 242.088 67.4838 242.825 67.4838C243.963 67.4838 244.883 67.878 245.583 68.6662C246.289 69.4545 246.642 70.5029 246.642 71.8115V71.9119C246.642 72.7259 246.485 73.4575 246.171 74.1067C245.862 74.7507 245.416 75.253 244.834 75.6136C244.257 75.9742 243.592 76.1546 242.84 76.1546C241.707 76.1546 240.787 75.7604 240.081 74.9722C239.381 74.1839 239.03 73.1407 239.03 71.8424V71.7419ZM240.468 71.9119C240.468 72.8393 240.681 73.5837 241.109 74.1453C241.542 74.7069 242.119 74.9876 242.84 74.9876C243.566 74.9876 244.144 74.7043 244.571 74.1376C244.999 73.5657 245.213 72.7672 245.213 71.7419C245.213 70.8249 244.994 70.083 244.556 69.5163C244.123 68.9444 243.546 68.6585 242.825 68.6585C242.119 68.6585 241.549 68.9393 241.117 69.5008C240.684 70.0624 240.468 70.8661 240.468 71.9119ZM249.787 67.6384L249.834 68.6894C250.473 67.8857 251.307 67.4838 252.338 67.4838C254.105 67.4838 254.996 68.4807 255.012 70.4745V76H253.582V70.4668C253.577 69.864 253.438 69.4184 253.165 69.1299C252.897 68.8414 252.477 68.6971 251.905 68.6971C251.441 68.6971 251.034 68.8208 250.684 69.0681C250.334 69.3154 250.061 69.6399 249.865 70.0418V76H248.435V67.6384H249.787ZM269.594 72.4297C269.455 73.6198 269.015 74.5394 268.273 75.1886C267.536 75.8326 266.554 76.1546 265.328 76.1546C263.999 76.1546 262.933 75.678 262.129 74.7249C261.33 73.7718 260.931 72.4967 260.931 70.8996V69.8177C260.931 68.7718 261.117 67.8522 261.488 67.0588C261.864 66.2654 262.394 65.6575 263.079 65.235C263.765 64.8074 264.558 64.5936 265.46 64.5936C266.655 64.5936 267.613 64.9285 268.334 65.5982C269.056 66.2628 269.476 67.185 269.594 68.3648H268.103C267.974 67.4684 267.693 66.8192 267.26 66.4174C266.833 66.0155 266.232 65.8146 265.46 65.8146C264.512 65.8146 263.767 66.1649 263.226 66.8656C262.691 67.5663 262.423 68.5632 262.423 69.8563V70.9459C262.423 72.167 262.678 73.1381 263.188 73.8594C263.698 74.5806 264.411 74.9413 265.328 74.9413C266.153 74.9413 266.784 74.7558 267.222 74.3849C267.665 74.0088 267.958 73.3571 268.103 72.4297H269.594ZM271.024 71.7419C271.024 70.9228 271.183 70.186 271.503 69.5317C271.827 68.8774 272.276 68.3725 272.848 68.0171C273.425 67.6616 274.081 67.4838 274.818 67.4838C275.957 67.4838 276.876 67.878 277.577 68.6662C278.283 69.4545 278.636 70.5029 278.636 71.8115V71.9119C278.636 72.7259 278.479 73.4575 278.164 74.1067C277.855 74.7507 277.41 75.253 276.827 75.6136C276.25 75.9742 275.586 76.1546 274.834 76.1546C273.7 76.1546 272.781 75.7604 272.075 74.9722C271.374 74.1839 271.024 73.1407 271.024 71.8424V71.7419ZM272.461 71.9119C272.461 72.8393 272.675 73.5837 273.103 74.1453C273.535 74.7069 274.112 74.9876 274.834 74.9876C275.56 74.9876 276.137 74.7043 276.565 74.1376C276.992 73.5657 277.206 72.7672 277.206 71.7419C277.206 70.8249 276.987 70.083 276.549 69.5163C276.116 68.9444 275.539 68.6585 274.818 68.6585C274.112 68.6585 273.543 68.9393 273.11 69.5008C272.678 70.0624 272.461 70.8661 272.461 71.9119ZM281.773 67.6384L281.812 68.5657C282.425 67.8445 283.252 67.4838 284.293 67.4838C285.462 67.4838 286.258 67.9321 286.681 68.8285C286.959 68.4266 287.319 68.1021 287.762 67.8548C288.211 67.6075 288.739 67.4838 289.347 67.4838C291.181 67.4838 292.113 68.455 292.144 70.3973V76H290.715V70.4823C290.715 69.8846 290.578 69.439 290.305 69.1453C290.032 68.8465 289.573 68.6971 288.929 68.6971C288.399 68.6971 287.958 68.8568 287.608 69.1762C287.258 69.4905 287.054 69.9156 286.997 70.4514V76H285.56V70.5209C285.56 69.305 284.965 68.6971 283.775 68.6971C282.837 68.6971 282.196 69.0964 281.851 69.8949V76H280.421V67.6384H281.773ZM301.371 71.9119C301.371 73.1845 301.08 74.2097 300.498 74.9876C299.916 75.7656 299.128 76.1546 298.133 76.1546C297.118 76.1546 296.32 75.8326 295.738 75.1886V79.2148H294.308V67.6384H295.614L295.684 68.5657C296.266 67.8445 297.075 67.4838 298.11 67.4838C299.115 67.4838 299.908 67.8625 300.49 68.6198C301.078 69.3772 301.371 70.4307 301.371 71.7806V71.9119ZM299.942 71.7496C299.942 70.8068 299.741 70.0624 299.339 69.5163C298.937 68.9702 298.386 68.6971 297.685 68.6971C296.82 68.6971 296.17 69.0809 295.738 69.8486V73.8439C296.165 74.6064 296.82 74.9876 297.701 74.9876C298.386 74.9876 298.929 74.7172 299.331 74.1762C299.738 73.6301 299.942 72.8213 299.942 71.7496ZM308.357 76C308.275 75.8351 308.208 75.5415 308.156 75.119C307.492 75.8094 306.698 76.1546 305.776 76.1546C304.952 76.1546 304.274 75.9227 303.744 75.459C303.218 74.9902 302.956 74.3977 302.956 73.6816C302.956 72.8109 303.285 72.136 303.945 71.6569C304.609 71.1726 305.542 70.9305 306.742 70.9305H308.133V70.2736C308.133 69.7739 307.984 69.3772 307.685 69.0835C307.386 68.7847 306.946 68.6353 306.364 68.6353C305.854 68.6353 305.426 68.7641 305.081 69.0217C304.736 69.2793 304.563 69.591 304.563 69.9568H303.126C303.126 69.5395 303.272 69.1376 303.566 68.7512C303.865 68.3597 304.267 68.0505 304.772 67.8239C305.282 67.5972 305.841 67.4838 306.449 67.4838C307.412 67.4838 308.167 67.726 308.713 68.2103C309.259 68.6894 309.542 69.3514 309.563 70.1963V74.0448C309.563 74.8125 309.661 75.423 309.857 75.8764V76H308.357ZM305.985 74.9104C306.433 74.9104 306.858 74.7944 307.26 74.5626C307.662 74.3308 307.953 74.0294 308.133 73.6584V71.9428H307.013C305.261 71.9428 304.385 72.4555 304.385 73.4807C304.385 73.9289 304.535 74.2793 304.833 74.5317C305.132 74.7841 305.516 74.9104 305.985 74.9104ZM313.156 67.6384L313.203 68.6894C313.842 67.8857 314.676 67.4838 315.707 67.4838C317.474 67.4838 318.365 68.4807 318.38 70.4745V76H316.951V70.4668C316.946 69.864 316.807 69.4184 316.533 69.1299C316.266 68.8414 315.846 68.6971 315.274 68.6971C314.81 68.6971 314.403 68.8208 314.053 69.0681C313.702 69.3154 313.429 69.6399 313.234 70.0418V76H311.804V67.6384H313.156ZM323.272 73.9057L325.22 67.6384H326.75L323.388 77.2906C322.868 78.6816 322.041 79.3771 320.907 79.3771L320.637 79.3539L320.104 79.2535V78.0943L320.49 78.1252C320.974 78.1252 321.351 78.0273 321.618 77.8315C321.892 77.6357 322.116 77.2777 322.291 76.7573L322.608 75.9073L319.625 67.6384H321.186L323.272 73.9057Z" fill="black"/>
</svg>
